# xmcd CD database file
# Copyright (C) 1996 Ti Kan
#
# Track frame offsets:
#	150
#	13692
#	27536
#	50496
# Disc length: 837 seconds
#
# Revision: 1
# Processed by: cddbd v1.4PL0 Copyright (c) Steve Scherf et al.
# Submitted via: CDCOPY 4.744
#
DISCID=2d034304
DTITLE=Caitlin Cary - Ultra Hi-Fidelity
DYEAR=1900
DGENRE=
TTITLE0=The Battle
TTITLE1=Trickle of Whiskey
TTITLE2=The Fair (Band Version)
TTITLE3=Keys To The Fair
EXTD=
EXTT0=
EXTT1=
EXTT2=
EXTT3=
PLAYORDER=
